<?xml version="1.0" standalone="no"?>
<!DOCTYPE svg PUBLIC "-//W3C//DTD SVG 20010904//EN"
 "http://www.w3.org/TR/2001/REC-SVG-20010904/DTD/svg10.dtd">
<svg version="1.0" xmlns="http://www.w3.org/2000/svg"
 width="100.000000pt" height="100.000000pt" viewBox="0 0 100.000000 100.000000"
 preserveAspectRatio="xMidYMid meet">
<metadata>
Created by potrace 1.16, written by Peter Selinger 2001-2019
</metadata>
<g transform="translate(0.000000,100.000000) scale(0.100000,-0.100000)"
fill="#000000" stroke="none">
<path d="M332 981 c-100 -37 -190 -108 -253 -198 -57 -82 -79 -161 -79 -283 0
-92 4 -120 25 -175 46 -123 141 -228 260 -286 70 -34 70 -34 215 -34 145 0
145 0 215 34 119 58 214 163 260 286 21 55 25 83 25 175 0 92 -4 120 -25 175
-46 124 -141 228 -260 286 -67 32 -75 34 -200 36 -109 3 -139 0 -183 -16z
m-49 -380 c-10 -34 -10 -168 0 -202 7 -21 4 -27 -18 -37 -23 -11 -26 -10 -36
16 -27 67 -27 176 0 244 10 26 13 27 36 16 22 -10 25 -16 18 -37z m506 -45
c11 -64 3 -145 -19 -186 -9 -17 -14 -18 -36 -8 -16 8 -23 17 -19 27 27 69 27
153 0 222 -4 10 2 19 17 26 31 15 43 -2 57 -81z m-213 20 c28 -28 34 -42 34
-76 0 -34 -6 -48 -34 -76 -28 -28 -42 -34 -76 -34 -34 0 -48 6 -76 34 -28 28
-34 42 -34 76 0 34 6 48 34 76 28 28 42 34 76 34 34 0 48 -6 76 -34z"/>
</g>
</svg>
