<?xml version="1.0" standalone="no"?>
<!DOCTYPE svg PUBLIC "-//W3C//DTD SVG 20010904//EN"
 "http://www.w3.org/TR/2001/REC-SVG-20010904/DTD/svg10.dtd">
<svg version="1.0" xmlns="http://www.w3.org/2000/svg"
 width="100.000000pt" height="100.000000pt" viewBox="0 0 100.000000 100.000000"
 preserveAspectRatio="xMidYMid meet">
<metadata>
Created by potrace 1.16, written by Peter Selinger 2001-2019
</metadata>
<g transform="translate(0.000000,100.000000) scale(0.100000,-0.100000)"
fill="#000000" stroke="none">
<path d="M332 981 c-100 -37 -190 -108 -253 -198 -57 -82 -79 -161 -79 -283 0
-92 4 -120 25 -175 46 -123 141 -228 260 -286 70 -34 70 -34 215 -34 145 0
145 0 215 34 119 58 214 163 260 286 21 55 25 83 25 175 0 92 -4 120 -25 175
-46 124 -141 228 -260 286 -67 32 -75 34 -200 36 -109 3 -139 0 -183 -16z
m-81 -210 c31 -19 32 -19 67 2 l35 21 38 -21 37 -20 36 20 36 21 36 -21 36
-20 37 20 38 21 35 -21 c35 -21 36 -21 67 -2 17 10 34 19 36 19 3 0 4 -104 3
-232 l-3 -232 -109 -63 -109 -63 -178 0 -179 0 0 295 c0 162 2 295 5 295 2 0
19 -9 36 -19z"/>
<path d="M250 650 l0 -40 250 0 250 0 0 40 0 40 -250 0 -250 0 0 -40z"/>
</g>
</svg>
