<?xml version="1.0" standalone="no"?>
<!DOCTYPE svg PUBLIC "-//W3C//DTD SVG 20010904//EN"
 "http://www.w3.org/TR/2001/REC-SVG-20010904/DTD/svg10.dtd">
<svg version="1.0" xmlns="http://www.w3.org/2000/svg"
 width="288.000000pt" height="288.000000pt" viewBox="0 0 288.000000 288.000000"
 preserveAspectRatio="xMidYMid meet">
<metadata>
Created by potrace 1.16, written by Peter Selinger 2001-2019
</metadata>
<g transform="translate(0.000000,288.000000) scale(0.100000,-0.100000)"
fill="#000000" stroke="none">
<path d="M1155 2860 c-289 -59 -516 -181 -731 -395 -218 -217 -343 -447 -403
-742 -30 -144 -30 -422 0 -566 60 -295 185 -525 403 -742 219 -218 457 -344
755 -399 113 -22 409 -22 522 0 298 55 536 181 755 399 218 217 343 447 403
742 17 80 21 139 21 283 0 144 -4 203 -21 283 -60 295 -185 525 -403 742 -219
218 -457 344 -755 399 -121 23 -426 21 -546 -4z m485 -614 c132 -35 234 -87
340 -171 l50 -40 0 -140 1 -140 114 -65 c63 -36 117 -71 120 -78 2 -7 9 -52
15 -101 18 -141 -11 -311 -73 -440 l-32 -66 -3 150 -3 150 -131 76 -132 75
-128 -74 c-88 -51 -130 -81 -133 -96 -3 -11 -4 -79 -3 -151 l3 -130 85 -50
c47 -28 106 -63 131 -77 l45 -27 128 75 c71 41 130 73 132 71 5 -5 -44 -76
-94 -135 -77 -92 -230 -194 -356 -238 l-39 -14 -115 65 c-63 36 -118 65 -122
65 -4 0 -59 -29 -122 -65 l-115 -65 -42 15 c-79 28 -196 95 -267 154 -212 176
-331 474 -294 739 6 46 13 89 16 95 3 7 59 43 124 80 l120 69 0 140 c0 158 -7
142 100 217 101 70 200 112 325 137 86 17 276 12 355 -10z"/>
<path d="M1303 2187 l-123 -72 0 -151 0 -152 130 -75 130 -76 130 76 130 75 0
152 0 151 -126 73 c-69 39 -131 72 -137 71 -7 0 -67 -33 -134 -72z"/>
<path d="M833 1376 l-123 -71 0 -151 0 -152 128 -72 c70 -40 132 -73 137 -73
6 0 65 33 133 73 l122 72 0 153 0 154 -124 70 c-68 39 -130 71 -137 70 -8 -1
-69 -33 -136 -73z"/>
</g>
</svg>
